<svg width="28" height="28" viewBox="0 0 28 28" fill="none" xmlns="http://www.w3.org/2000/svg">
  <path d="M14.907 5.99984H13.0937L7.33366 19.3332H10.0003L10.9737 16.6665H17.027L18.0003 19.3332H20.667L14.907 5.99984ZM11.7337 14.6665L14.0003 8.6665L16.267 14.6665H11.7337ZM21.2003 25.1998L23.3337 27.3332H16.667V20.6665L19.3337 23.3332C22.5203 21.4798 24.667 17.9332 24.667 13.9998C24.667 8.11984 19.8803 3.33317 14.0003 3.33317C8.12033 3.33317 3.33366 8.11984 3.33366 13.9998C3.33366 17.9332 5.48033 21.3732 8.66699 23.2265V26.2132C3.96033 24.1465 0.666992 19.4665 0.666992 13.9998C0.666992 6.6665 6.66699 0.666504 14.0003 0.666504C21.3337 0.666504 27.3337 6.6665 27.3337 13.9998C27.3337 18.7065 24.8937 22.8265 21.2003 25.1998Z" fill="#383838"/>
</svg>